# xmcd
#
# Track frame offsets: 
#        150
#        13430
#        26174
#        39069
#        53777
#        67319
#        79466
#        92525
#        103749
#        118886
#        133108
#        147632
#        161917
#        174679
#        185973
#        197158
#        210676
#        221779
#        236214
#        247342
#        264123
#        277887
#        290618
#        305005
#        317164
#
# Disc length: 4416 seconds
#
# Revision: 0
# Processed by: cddbd v1.5.2PL0 Copyright (c) Steve Scherf et al.
# Submitted via: ExactAudioCopy v0.95b4
#
DISCID=9e113e19
DTITLE=Muddy Waters - The Best of Muddy Waters
DYEAR=2009
DGENRE=Blues
TTITLE0=Mannish Boy
TTITLE1=I'm Your Hoochie Coochie Man
TTITLE2=Forty Days And Forty Nights
TTITLE3=Baby Please Don't Go
TTITLE4=She Moves Me
TTITLE5=Howlin' Wolf
TTITLE6=Got My Mojo Workin'
TTITLE7=I Want To Be Loved
TTITLE8=Honey Bee
TTITLE9=All Night Long
TTITLE10=Rock Me
TTITLE11=Smokestack Lightning
TTITLE12=Good News
TTITLE13=Sugar Sweet
TTITLE14=She's All Right
TTITLE15=Young Fashioned Ways
TTITLE16=Gone To Main Street
TTITLE17=Please Have Mercy
TTITLE18=Loving Man
TTITLE19=Sad, Sad Day
TTITLE20=Mad Love (I Want You To Love Me)
TTITLE21=Stuff You Gotta Watch
TTITLE22=Too Young To Know
TTITLE23=Trouble No More
TTITLE24=Rollin' Stone
EXTD=
EXTT0=
EXTT1=
EXTT2=
EXTT3=
EXTT4=
EXTT5=
EXTT6=
EXTT7=
EXTT8=
EXTT9=
EXTT10=
EXTT11=
EXTT12=
EXTT13=
EXTT14=
EXTT15=
EXTT16=
EXTT17=
EXTT18=
EXTT19=
EXTT20=
EXTT21=
EXTT22=
EXTT23=
EXTT24=
PLAYORDER=
